<svg xmlns="http://www.w3.org/2000/svg" xmlns:xlink="http://www.w3.org/1999/xlink" width="60" zoomAndPan="magnify" viewBox="0 0 45 44.999999" height="60" preserveAspectRatio="xMidYMid meet" version="1.0"><path fill="#f4f6fc" d="M 19.03125 15.089844 C 18.277344 16.414062 17.605469 17.601562 16.929688 18.785156 C 16.304688 19.875 15.664062 20.953125 15.042969 22.046875 C 14.859375 22.371094 14.636719 22.515625 14.238281 22.511719 C 12.097656 22.492188 9.953125 22.515625 7.8125 22.484375 C 7.566406 22.480469 7.210938 22.308594 7.09375 22.109375 C 5.777344 19.878906 4.496094 17.636719 3.230469 15.378906 C 3.128906 15.203125 3.121094 14.871094 3.21875 14.695312 C 5.96875 9.894531 8.730469 5.105469 11.515625 0.328125 C 11.625 0.140625 12.003906 0.015625 12.257812 0.0117188 C 15.625 -0.0078125 18.988281 0 22.351562 0 C 32.800781 0 43.253906 0.00390625 53.703125 0.00390625 C 54.035156 0.00390625 54.367188 0.00390625 54.839844 0.00390625 C 54.503906 0.628906 54.238281 1.152344 53.941406 1.660156 C 52.910156 3.445312 51.847656 5.214844 50.839844 7.011719 C 50.609375 7.425781 50.347656 7.542969 49.910156 7.542969 C 44.234375 7.53125 38.558594 7.539062 32.878906 7.539062 C 27.449219 7.539062 22.019531 7.542969 16.585938 7.53125 C 16.132812 7.527344 15.886719 7.664062 15.660156 8.070312 C 14.460938 10.210938 13.214844 12.328125 11.992188 14.453125 C 11.691406 14.976562 11.730469 15.046875 12.324219 15.046875 C 14.203125 15.046875 16.085938 15.035156 17.964844 15.035156 C 18.273438 15.039062 18.585938 15.070312 19.03125 15.089844 Z M 19.03125 15.089844 " fill-opacity="1" fill-rule="nonzero"/><path fill="#f4f6fc" d="M 25.878906 22.445312 C 26.425781 21.480469 26.914062 20.597656 27.414062 19.730469 C 28.25 18.289062 29.085938 16.84375 29.953125 15.421875 C 30.066406 15.230469 30.382812 15.050781 30.609375 15.050781 C 32.75 15.023438 34.894531 15.042969 37.035156 15.023438 C 37.441406 15.023438 37.679688 15.148438 37.882812 15.511719 C 39.097656 17.664062 40.328125 19.808594 41.574219 21.945312 C 41.804688 22.34375 41.832031 22.636719 41.578125 23.066406 C 38.875 27.710938 36.191406 32.371094 33.53125 37.042969 C 33.285156 37.472656 32.992188 37.542969 32.574219 37.542969 C 26.898438 37.535156 21.222656 37.53125 15.546875 37.53125 C 7.238281 37.535156 -1.066406 37.539062 -9.375 37.542969 C -9.5 37.542969 -9.628906 37.515625 -9.835938 37.492188 C -9.753906 37.265625 -9.714844 37.070312 -9.621094 36.902344 C -8.402344 34.769531 -7.171875 32.644531 -5.964844 30.507812 C -5.753906 30.128906 -5.488281 30.007812 -5.0625 30.007812 C 6.042969 30.015625 17.152344 30.007812 28.257812 30.019531 C 28.75 30.019531 29.007812 29.886719 29.257812 29.4375 C 30.441406 27.308594 31.679688 25.210938 32.898438 23.101562 C 33.179688 22.617188 33.132812 22.519531 32.585938 22.515625 C 30.59375 22.507812 28.601562 22.511719 26.609375 22.503906 C 26.398438 22.503906 26.1875 22.472656 25.878906 22.445312 Z M 25.878906 22.445312 " fill-opacity="1" fill-rule="nonzero"/><path fill="#f4f6fc" d="M 32.644531 8.550781 C 32.308594 9.160156 32.058594 9.648438 31.78125 10.125 C 29.4375 14.203125 27.09375 18.277344 24.742188 22.351562 C 23.5625 24.394531 22.375 26.4375 21.199219 28.484375 C 20.988281 28.855469 20.707031 28.992188 20.285156 28.988281 C 17.824219 28.976562 15.363281 28.988281 12.902344 28.984375 C 12.394531 28.984375 12.328125 28.824219 12.597656 28.355469 C 14.675781 24.753906 16.757812 21.148438 18.832031 17.546875 C 20.410156 14.804688 22 12.066406 23.554688 9.3125 C 23.867188 8.761719 24.21875 8.523438 24.886719 8.53125 C 27.398438 8.578125 29.914062 8.550781 32.644531 8.550781 Z M 32.644531 8.550781 " fill-opacity="1" fill-rule="nonzero"/><path fill="#f4f6fc" d="M 15.339844 38.585938 C 14.769531 39.585938 14.246094 40.488281 13.730469 41.394531 C 13.144531 42.417969 12.550781 43.4375 11.980469 44.46875 C 11.792969 44.816406 11.554688 44.996094 11.144531 44.996094 C 8.589844 44.988281 6.035156 44.996094 3.480469 44.992188 C 3.378906 44.992188 3.277344 44.953125 3.078125 44.910156 C 3.398438 44.339844 3.675781 43.820312 3.96875 43.308594 C 4.808594 41.847656 5.644531 40.382812 6.519531 38.941406 C 6.636719 38.746094 6.945312 38.546875 7.167969 38.542969 C 9.738281 38.515625 12.3125 38.523438 14.886719 38.527344 C 14.992188 38.527344 15.097656 38.554688 15.339844 38.585938 Z M 15.339844 38.585938 " fill-opacity="1" fill-rule="nonzero"/></svg>